<svg width="201" height="159" viewBox="0 0 201 159" fill="none" xmlns="http://www.w3.org/2000/svg">
<path d="M161.828 116.115C161.828 116.115 161.821 116.115 161.815 116.115C161.815 117.33 161.825 118.545 161.815 119.76C161.779 123.676 159.478 125.978 155.557 126.007C153.168 126.027 150.783 126.001 148.394 126.017C146.339 126.03 145.126 127.062 145.146 128.744C145.166 130.367 146.372 131.422 148.326 131.445C150.887 131.471 153.449 131.504 156.008 131.442C161.374 131.308 165.765 128.248 166.729 123.127C167.432 119.394 167.167 115.456 167.112 111.615C167.092 110.096 165.726 109.247 164.282 109.365C162.88 109.479 161.896 110.528 161.838 112.085C161.789 113.428 161.828 114.776 161.828 116.119V116.115ZM161.828 46.5185C161.828 47.5602 161.828 48.602 161.828 49.6471C161.828 49.9083 161.825 50.1696 161.828 50.4276C161.874 52.3217 162.864 53.4746 164.465 53.504C166.066 53.5333 167.203 52.3838 167.239 50.5386C167.288 47.8476 167.34 45.1501 167.229 42.4624C166.981 36.5121 163.184 32.2601 157.315 31.6168C154.309 31.2869 151.244 31.4306 148.205 31.4339C146.342 31.4339 145.169 32.5377 145.153 34.1249C145.136 35.7708 146.319 36.8093 148.29 36.8289C150.636 36.8485 152.982 36.8289 155.328 36.8387C159.573 36.8551 161.812 39.1182 161.821 43.3931C161.821 44.4349 161.821 45.4767 161.821 46.5217L161.828 46.5185ZM122.661 109.319C122.661 109.319 122.671 109.319 122.677 109.319C122.677 108.408 122.677 107.5 122.677 106.589C122.677 106.504 122.671 106.416 122.661 106.331C122.524 104.924 121.609 103.96 120.292 103.843C118.825 103.712 117.593 104.414 117.465 105.877C117.272 108.101 117.289 110.364 117.455 112.592C117.557 113.934 118.913 114.809 120.145 114.714C121.501 114.61 122.553 113.588 122.648 112.174C122.713 111.226 122.661 110.27 122.661 109.316V109.319ZM139.365 109.283C139.365 109.283 139.365 109.283 139.362 109.283C139.362 108.287 139.418 107.285 139.349 106.292C139.254 104.891 138.281 103.941 136.954 103.833C135.506 103.718 134.271 104.447 134.144 105.91C133.954 108.095 133.957 110.319 134.121 112.507C134.225 113.924 135.598 114.835 136.879 114.711C138.248 114.58 139.261 113.568 139.352 112.138C139.415 111.187 139.365 110.23 139.365 109.277V109.283ZM78.3799 109.162C78.3799 109.162 78.3865 109.162 78.3897 109.162C78.3897 110.204 78.3244 111.249 78.4061 112.285C78.5106 113.624 79.5792 114.607 80.8895 114.708C82.0757 114.799 83.4351 113.966 83.5331 112.693C83.7096 110.42 83.7259 108.111 83.5397 105.841C83.4253 104.43 82.2195 103.751 80.798 103.852C79.4746 103.944 78.491 104.901 78.393 106.298C78.3276 107.249 78.3799 108.206 78.3799 109.162ZM72.5601 109.323C72.5601 108.369 72.5993 107.412 72.5503 106.462C72.4752 104.969 71.5242 103.967 70.1616 103.862C68.6879 103.751 67.4951 104.457 67.3644 105.946C67.1749 108.131 67.1912 110.354 67.3546 112.543C67.4559 113.901 68.7826 114.789 70.0113 114.711C71.4131 114.623 72.4621 113.552 72.5438 112.056C72.5928 111.148 72.5536 110.237 72.5536 109.326L72.5601 109.323ZM94.7774 109.215C94.7774 109.215 94.7708 109.215 94.7676 109.215C94.7676 108.173 94.8493 107.125 94.748 106.096C94.6075 104.698 93.5716 103.849 92.1926 103.836C90.8104 103.823 89.6732 104.662 89.598 106.037C89.4837 108.157 89.4869 110.289 89.5882 112.405C89.6503 113.728 90.8594 114.701 92.1371 114.718C93.4507 114.737 94.6336 113.728 94.761 112.33C94.8558 111.298 94.7806 110.25 94.7806 109.208L94.7774 109.215Z" fill="#1F1F3D"/>
<path d="M150.554 81.361C150.554 81.9978 150.554 82.504 150.554 83.0134C150.554 92.3144 150.561 101.612 150.548 110.913C150.548 111.556 150.499 112.222 150.329 112.84C150.005 114.019 148.822 114.809 147.672 114.724C146.414 114.633 145.365 113.695 145.179 112.441C145.104 111.929 145.12 111.4 145.117 110.88C145.117 101.625 145.117 92.3666 145.117 83.1114C145.117 82.5987 145.117 82.086 145.117 81.4655H139.369C139.369 81.9553 139.369 82.4583 139.369 82.9579C139.369 87.001 139.398 91.0407 139.356 95.0837C139.333 97.3698 137.33 98.6892 135.454 97.7127C134.268 97.0955 133.944 95.9949 133.944 94.7506C133.944 90.7958 133.944 86.8409 133.944 82.8861C133.944 82.4223 133.944 81.9586 133.944 81.423H122.664C122.664 81.9521 122.664 82.455 122.664 82.9579C122.664 87.0434 122.684 91.1289 122.648 95.2111C122.631 96.8179 121.586 97.9152 120.128 98.0229C118.766 98.1274 117.534 97.0465 117.295 95.5115C117.236 95.1295 117.25 94.731 117.25 94.3424C117.25 90.5606 117.25 86.7821 117.25 83.0004C117.25 82.5268 117.25 82.05 117.25 81.4622H111.645C111.613 82.0207 111.554 82.6085 111.554 83.1963C111.551 92.4972 111.56 101.795 111.554 111.096C111.554 113.219 110.985 114.159 109.525 114.574C108.074 114.985 106.541 114.084 106.28 112.608C106.165 111.971 106.149 111.311 106.149 110.661C106.143 101.537 106.149 92.4091 106.149 83.2845C106.149 82.6836 106.149 82.086 106.149 81.4165H94.931C94.8983 81.9455 94.846 82.4485 94.846 82.9514C94.8395 86.7332 94.8591 90.5117 94.8362 94.2934C94.8329 95.0217 94.8166 95.812 94.5421 96.4619C94.0814 97.5559 93.0978 98.0785 91.9083 97.987C90.611 97.8858 89.5948 96.9485 89.5621 95.6226C89.4673 91.8441 89.4869 88.0656 89.4641 84.2838C89.4575 83.3433 89.4641 82.3995 89.4641 81.4034H83.7423C83.7423 81.89 83.7423 82.3472 83.7423 82.8044C83.7423 86.8017 83.7651 90.8023 83.7357 94.7996C83.7194 97.2 81.994 98.5748 80.0432 97.7911C78.7949 97.2881 78.344 96.2757 78.3472 94.9825C78.3571 90.9852 78.3505 86.9879 78.3505 82.9873C78.3505 82.517 78.3505 82.0468 78.3505 81.4557H72.5601C72.5601 82.0043 72.5601 82.5138 72.5601 83.02C72.5601 87.063 72.5797 91.1028 72.547 95.1458C72.534 96.8113 71.4327 97.9674 69.9492 98.0164C68.58 98.0621 67.4102 96.9583 67.201 95.4005C67.1488 95.0152 67.1716 94.62 67.1716 94.2281C67.1716 90.4463 67.1716 86.6678 67.1716 82.8861C67.1716 82.4191 67.1716 81.9553 67.1716 81.3316C64.2176 81.3316 61.4041 81.3316 58.5906 81.3316C56.765 81.3316 55.8533 82.2449 55.8555 84.0716C55.8555 93.023 55.8588 101.975 55.8555 110.929C55.8555 111.449 55.8751 111.981 55.7901 112.49C55.5941 113.682 54.5745 114.577 53.3622 114.691C52.225 114.799 51.0291 114.006 50.7056 112.823C50.5356 112.206 50.4834 111.543 50.4834 110.9C50.4703 101.599 50.4801 90.6292 50.4834 81.3283" fill="#1F1F3D"/>
<path d="M50.4801 76.0476C50.4213 68.5722 50.4834 59.415 50.4997 51.9396C50.4997 51.3387 50.5488 50.7215 50.6991 50.1435C51.0095 48.9286 52.1336 48.1089 53.2773 48.1644C54.5681 48.2265 55.6562 49.2291 55.8163 50.5452C55.8751 51.0187 55.8555 51.4988 55.8555 51.9788C55.8588 59.4085 55.8588 66.8414 55.8621 74.271C55.8621 75.438 56.4633 76.0225 57.6659 76.0247C60.4042 76.0247 63.1458 75.979 65.8842 76.041C66.9168 76.0639 67.2076 75.7373 67.2043 74.7086C67.1651 67.1026 67.1815 59.4999 67.1913 51.8939C67.1913 51.3779 67.2142 50.8489 67.3285 50.3492C67.639 48.9874 68.7827 48.086 70.0113 48.1644C71.4132 48.2559 72.5013 49.3303 72.534 50.8325C72.5896 53.5268 72.5602 56.2211 72.5634 58.9153C72.5634 64.1308 72.5961 69.3462 72.5405 74.5584C72.5275 75.7014 72.8542 76.1455 74.011 76.0312C74.8737 75.9463 75.7495 76.0149 76.6187 76.0149C77.7733 76.0127 78.3517 75.451 78.3538 74.3298C78.3538 66.6813 78.3538 59.0329 78.3636 51.3845C78.3636 49.7157 78.9224 48.7914 80.1184 48.3604C81.5791 47.8346 83.0855 48.5563 83.5168 50.0553C83.6802 50.6268 83.7325 51.2506 83.7325 51.8515C83.7488 59.3268 83.7423 66.8022 83.7456 74.2743C83.7456 74.787 83.7456 75.2964 83.7456 75.9986C85.5134 75.9986 87.1538 76.0476 88.7811 75.9463C89.0295 75.93 89.4249 75.2279 89.4347 74.836C89.4935 72.1874 89.4706 69.5356 89.4706 66.8838C89.4706 61.8872 89.4641 56.8873 89.487 51.8907C89.4902 51.1624 89.5 50.3721 89.7713 49.7222C90.2287 48.6249 91.2123 48.1024 92.3985 48.1905C93.6501 48.282 94.5683 49.1964 94.7382 50.4309C94.8199 51.0318 94.8362 51.6425 94.8395 52.2499C94.846 59.6371 94.8722 67.0242 94.8232 74.4114C94.8166 75.6361 95.1173 76.0835 96.4113 76.0378C99.1464 75.9398 101.891 75.9496 104.626 76.0312C105.819 76.0672 106.185 75.7079 106.179 74.5061C106.133 67.0765 106.159 59.6436 106.169 52.214C106.169 51.6065 106.185 50.9958 106.273 50.3949C106.463 49.0984 107.636 48.1187 108.897 48.1481C110.129 48.1742 111.237 49.1148 111.43 50.3525C111.521 50.9501 111.544 51.5641 111.544 52.1683C111.554 59.4705 111.551 66.7695 111.557 74.0718C111.557 74.6694 111.609 75.2638 111.642 75.93H117.256C117.256 75.3683 117.256 74.8654 117.256 74.3657C117.256 66.9785 117.256 59.5913 117.256 52.2042C117.256 51.858 117.243 51.5086 117.263 51.1624C117.354 49.3532 118.498 48.1122 120.03 48.1481C121.599 48.1873 122.654 49.3956 122.658 51.2604C122.674 58.997 122.69 66.7303 122.648 74.4669C122.641 75.6263 122.916 76.0639 124.158 76.0312C127.36 75.9463 130.569 76.0018 133.951 76.0018C133.951 75.3389 133.951 74.8327 133.951 74.3265C133.951 66.8512 133.948 59.3758 133.964 51.9037C133.964 51.2604 134.02 50.5941 134.196 49.9802C134.533 48.8176 135.758 48.0403 136.892 48.1611C138.114 48.2918 139.114 49.1801 139.303 50.3786C139.385 50.8881 139.369 51.4171 139.369 51.9396C139.372 59.4574 139.401 66.9753 139.349 74.4931C139.339 75.7014 139.689 76.1292 140.888 76.0149C141.836 75.9235 142.806 75.9333 143.754 76.0149C144.855 76.1096 145.149 75.6753 145.143 74.6074C145.104 67.0896 145.123 59.5718 145.127 52.0539C145.127 51.5314 145.11 51.0056 145.179 50.4929C145.345 49.2225 146.352 48.2852 147.62 48.1579C148.809 48.0403 150.012 48.8633 150.342 50.1141C150.495 50.6921 150.538 51.3126 150.538 51.9135C150.551 59.3431 150.548 66.776 150.548 74.2057C150.548 74.7217 150.548 75.2409 150.548 75.9267" fill="#1F1F3D"/>
<path d="M33.7167 111.677C33.818 111.494 33.9323 111.315 34.0206 111.122C34.6153 109.816 35.7721 109.162 37.0432 109.427C38.2555 109.678 39.115 110.688 39.1411 112.059C39.1868 114.446 39.1607 116.834 39.164 119.221C39.1705 123.885 41.3501 126.047 46.0491 126.047C48.3528 126.047 50.6533 126.024 52.9538 126.056C54.6693 126.079 55.7836 127.095 55.8457 128.597C55.9078 130.152 54.8164 131.383 53.0649 131.399C49.856 131.429 46.6307 131.481 43.4414 131.193C38.4745 130.746 34.6807 126.873 33.9912 121.919C33.9519 121.628 33.8114 121.35 33.7167 121.066C33.7167 117.938 33.7167 114.809 33.7167 111.68V111.677Z" fill="#1F1F3D"/>
<path d="M33.7167 41.7962C34.1055 40.4801 34.3277 39.0823 34.9127 37.8609C36.8994 33.7134 40.3567 31.669 44.8825 31.4698C47.5294 31.3555 50.186 31.4208 52.8394 31.4535C54.0321 31.4698 55.2248 31.8421 55.5385 33.0798C55.7477 33.8995 55.6595 35.0621 55.1987 35.7088C54.7641 36.3162 53.6792 36.7016 52.859 36.7473C50.4311 36.8779 47.9934 36.7865 45.5556 36.7963C41.4939 36.8159 39.1738 39.1378 39.1542 43.2037C39.1444 45.3754 39.1542 47.5504 39.1542 49.7222C39.1542 51.9658 38.5954 52.9978 37.1837 53.3864C35.7949 53.7685 34.7558 53.1088 33.7199 51.182C33.7199 48.0534 33.7199 44.9248 33.7199 41.7962H33.7167Z" fill="#1F1F3D"/>
<path d="M161.828 116.115C161.828 114.77 161.789 113.424 161.838 112.082C161.897 110.524 162.877 109.476 164.282 109.362C165.726 109.244 167.092 110.096 167.112 111.612C167.164 115.456 167.432 119.391 166.729 123.124C165.766 128.244 161.374 131.304 156.008 131.438C153.449 131.504 150.884 131.471 148.326 131.442C146.372 131.422 145.166 130.367 145.146 128.741C145.127 127.059 146.339 126.027 148.394 126.014C150.783 125.998 153.168 126.024 155.557 126.004C159.482 125.975 161.779 123.672 161.815 119.757C161.828 118.542 161.815 117.327 161.815 116.112C161.818 116.112 161.821 116.112 161.828 116.112V116.115Z" fill="#1F1F3D"/>
<path d="M161.825 46.5185C161.825 45.4767 161.825 44.4349 161.825 43.3899C161.815 39.115 159.576 36.8518 155.332 36.8355C152.985 36.8257 150.639 36.8453 148.293 36.8257C146.323 36.8093 145.14 35.7708 145.156 34.1216C145.172 32.5344 146.342 31.4339 148.208 31.4306C151.247 31.4273 154.309 31.2836 157.318 31.6135C163.184 32.2568 166.981 36.5089 167.233 42.4591C167.344 45.1468 167.295 47.8444 167.243 50.5354C167.207 52.3805 166.069 53.5301 164.468 53.5007C162.864 53.4713 161.874 52.3185 161.831 50.4243C161.825 50.1631 161.831 49.9018 161.831 49.6438C161.831 48.602 161.831 47.5602 161.831 46.5152L161.825 46.5185Z" fill="#1F1F3D"/>
<path d="M122.658 109.319C122.658 110.273 122.71 111.23 122.645 112.177C122.55 113.591 121.498 114.613 120.142 114.718C118.91 114.812 117.554 113.937 117.452 112.595C117.282 110.368 117.269 108.104 117.462 105.88C117.589 104.414 118.821 103.712 120.289 103.846C121.606 103.963 122.524 104.927 122.658 106.334C122.668 106.419 122.671 106.507 122.674 106.592C122.674 107.503 122.674 108.411 122.674 109.323C122.668 109.323 122.664 109.323 122.658 109.323V109.319Z" fill="#1F1F3D"/>
<path d="M139.362 109.283C139.362 110.237 139.411 111.194 139.349 112.144C139.258 113.575 138.245 114.587 136.876 114.718C135.595 114.838 134.222 113.927 134.118 112.513C133.954 110.325 133.951 108.101 134.14 105.916C134.268 104.453 135.5 103.725 136.951 103.839C138.277 103.944 139.248 104.897 139.346 106.298C139.415 107.291 139.359 108.291 139.359 109.29C139.359 109.29 139.359 109.29 139.362 109.29V109.283Z" fill="#1F1F3D"/>
<path d="M78.3767 109.159C78.3767 108.206 78.3244 107.245 78.3897 106.295C78.4878 104.897 79.4714 103.941 80.7948 103.849C82.2163 103.751 83.4188 104.43 83.5364 105.838C83.7227 108.108 83.7031 110.417 83.5299 112.69C83.4318 113.96 82.0725 114.796 80.8863 114.705C79.5759 114.603 78.5074 113.617 78.4028 112.281C78.3211 111.246 78.3865 110.201 78.3865 109.159C78.3865 109.159 78.3799 109.159 78.3767 109.159Z" fill="#1F1F3D"/>
<path d="M72.5569 109.319C72.5569 110.23 72.5961 111.142 72.5471 112.049C72.4654 113.545 71.4164 114.616 70.0146 114.705C68.7826 114.783 67.4592 113.895 67.3579 112.536C67.1913 110.348 67.1782 108.124 67.3677 105.939C67.4952 104.45 68.6911 103.745 70.1649 103.856C71.5275 103.96 72.4784 104.963 72.5536 106.455C72.5994 107.406 72.5634 108.362 72.5601 109.316L72.5569 109.319Z" fill="#1F1F3D"/>
<path d="M94.7741 109.211C94.7741 110.253 94.8493 111.302 94.7545 112.334C94.6238 113.731 93.4442 114.74 92.1305 114.721C90.8529 114.701 89.6438 113.731 89.5817 112.409C89.4837 110.289 89.4771 108.157 89.5915 106.04C89.6667 104.666 90.8038 103.826 92.1861 103.839C93.5651 103.852 94.6009 104.701 94.7415 106.099C94.846 107.128 94.7611 108.179 94.7611 109.218C94.7643 109.218 94.7676 109.218 94.7709 109.218L94.7741 109.211Z" fill="#1F1F3D"/>
<path d="M165.694 75.1168H35.3211C33.8521 75.1168 32.6612 76.307 32.6612 77.7752V78.7059C32.6612 80.1741 33.8521 81.3642 35.3211 81.3642H165.694C167.163 81.3642 168.354 80.1741 168.354 78.7059V77.7752C168.354 76.307 167.163 75.1168 165.694 75.1168Z" fill="#5459FA"/>
</svg>
