<svg width="290" height="298" viewBox="0 0 290 298" fill="none" xmlns="http://www.w3.org/2000/svg">
<path d="M117.73 0.42635C119.181 0.899763 120.664 1.28005 122.068 1.84659C131.63 5.68047 137.466 12.6187 138.118 22.9872C138.653 31.4776 138.32 40.0146 138.374 48.536C138.374 49.6769 138.374 50.8177 138.374 52.5018C139.732 51.8034 140.656 51.3688 141.54 50.8643C148.091 47.1236 154.618 43.344 161.183 39.6188C171.334 33.8602 181.75 36.6386 187.539 46.7278C199.724 67.946 211.838 89.2108 224.039 110.421C224.884 111.888 226.041 113.277 227.329 114.379C239.335 124.616 251.675 134.488 263.394 145.035C281.097 160.976 288.237 181.185 285.877 204.809C284.504 218.577 283.052 232.337 281.733 246.113C281.632 247.16 282.067 248.379 282.579 249.341C284.41 252.748 286.42 256.054 288.283 259.446C289.719 262.069 289.168 264.49 286.979 265.779C284.775 267.082 282.338 266.407 280.825 263.869C278.303 259.632 275.811 255.371 273.522 251.002C272.901 249.814 272.785 248.192 272.917 246.811C274.275 232.655 275.695 218.499 277.177 204.351C279.374 183.389 273.095 165.578 257.434 151.329C251.854 146.253 245.947 141.535 240.181 136.661C239.855 136.381 239.467 136.187 238.776 136.234C240.67 139.563 242.572 142.877 244.45 146.214C250.224 156.474 247.399 166.82 237.17 172.757C232.172 175.659 227.135 178.5 221.959 181.464C222.75 182.954 223.472 184.196 224.077 185.492C225.164 187.821 224.504 190.141 222.494 191.297C220.469 192.462 217.946 192.004 216.666 189.831C212.591 182.916 198.024 157.514 194.144 150.483C192.933 148.294 193.888 145.842 195.944 144.755C198.024 143.661 200.337 144.251 201.726 146.463C203.511 149.319 215.711 170.708 217.613 173.991C223.658 170.421 229.72 167.215 235.369 163.389C239.296 160.727 239.708 155.496 237.046 150.824C229.293 137.212 221.493 123.623 213.717 110.018C202.626 90.6233 191.544 71.2211 180.453 51.8266C176.503 44.9195 171.684 43.6312 164.745 47.6047C142.751 60.1851 120.757 72.7655 98.7625 85.3536C91.6457 89.4281 90.3341 94.1467 94.362 101.209C98.7236 108.854 112.755 133.355 117.14 140.991C118.196 142.831 118.661 144.841 117.024 146.315C115.953 147.278 114.059 148.007 112.717 147.782C111.475 147.573 110.163 146.137 109.418 144.911C106.314 139.788 93.6558 117.724 90.792 112.455C89.8374 110.708 88.7587 110.049 86.7331 110.057C67.0748 110.134 47.4242 110.103 27.7659 110.103C20.7113 110.103 18.3753 107.767 18.3753 100.728C18.3753 93.4638 18.3675 86.2073 18.3753 78.9432C18.3753 75.2723 19.9119 73.2311 22.6437 73.1768C25.4609 73.1225 27.0752 75.2567 27.083 79.0906C27.0907 85.4778 27.083 91.8728 27.0907 98.26C27.0907 99.2068 27.1683 100.146 27.2149 101.232H83.8305C83.8305 97.6779 83.4192 94.1778 83.9237 90.8173C84.7153 85.5632 87.8739 81.6284 92.4373 78.9509C98.2735 75.5284 104.211 72.261 110.031 68.8074C110.955 68.2564 112.08 67.0457 112.096 66.1222C112.259 58.2915 112.189 50.453 112.189 42.3739H27.0907C27.0907 47.5892 27.2848 77.1504 26.9743 82.3269C26.8734 83.9955 25.8412 86.1375 24.5296 87.0843C22.0927 88.8383 18.5382 86.7816 18.4529 83.6385C18.2821 77.0573 18.2744 46.1146 18.4839 39.5412C18.5926 36.1885 21.4486 33.7283 24.8246 33.4722C25.6938 33.4023 26.563 33.4256 27.44 33.4256C55.612 33.4256 83.7917 33.4256 111.964 33.4256C118.568 33.4256 120.896 35.7306 120.92 42.2808C120.943 48.8465 120.92 55.4044 120.92 62.6298C123.9 60.9146 126.43 59.572 128.813 58.0043C129.356 57.6473 129.604 56.5142 129.612 55.7381C129.659 45.4782 129.798 35.2106 129.581 24.9507C129.379 15.4514 122.681 9.14958 113.136 9.14182C84.0866 9.11853 55.0454 9.11077 25.9964 9.14182C16.404 9.14958 9.67532 15.8317 9.66756 25.3776C9.64428 86.8593 9.64428 148.341 9.66756 209.823C9.66756 219.066 16.3186 225.826 25.5774 225.849C54.9135 225.926 84.2496 225.919 113.586 225.849C122.674 225.826 129.278 219.57 129.542 210.49C129.821 200.913 129.635 191.321 129.62 181.736C129.62 181.084 129.511 180.339 129.201 179.78C126.717 175.341 124.164 170.933 120.928 166.626C120.928 168.969 120.959 171.313 120.928 173.649C120.834 179.928 117.87 182.885 111.646 182.916C108.254 182.931 104.863 182.986 101.479 182.877C97.1948 182.737 94.0749 179.959 93.7877 175.706C93.5316 172.05 93.5704 168.348 93.8265 164.693C94.0749 161.224 96.7369 158.166 100.035 157.98C105.499 157.67 111.001 157.895 116.675 157.895C116.356 157.313 115.891 156.443 115.402 155.582C113.446 152.136 111.413 148.729 109.55 145.229C108.262 142.807 109.015 140.433 111.188 139.23C113.229 138.097 115.518 138.717 116.993 140.844C117.435 141.48 117.784 142.171 118.165 142.846C128.867 161.573 139.577 180.292 150.279 199.019C154.292 206.043 159.096 207.339 166.181 203.296C170.636 200.75 175.052 198.15 179.553 195.706C181.028 194.906 181.804 193.998 181.439 192.291C181.323 191.724 181.253 191.127 181.307 190.56C182.238 181.201 178.769 173.246 173.733 165.648C170.745 161.146 168.261 156.304 165.622 151.577C160.718 142.784 163.302 132.695 171.637 127.883C179.91 123.103 189.984 126.044 195.09 134.759C197.683 139.183 200.22 143.638 202.719 148.108C204.264 150.871 203.721 153.378 201.447 154.643C199.196 155.9 196.72 155.046 195.145 152.361C192.607 148.023 190.178 143.615 187.632 139.276C184.916 134.643 180.221 133.099 176.076 135.396C171.816 137.763 170.628 142.691 173.313 147.448C177.59 155.031 181.827 162.636 186.305 170.102C188.579 173.89 189.549 177.84 189.72 182.202C190.155 193.23 190.395 204.281 191.412 215.255C193.562 238.553 203.62 258.072 221.245 273.408C227.135 278.53 229.882 285.414 233.67 291.739C234.857 293.718 234.104 295.976 231.9 297.218C229.704 298.46 227.81 297.831 226.258 295.937C226.134 295.79 226.002 295.635 225.924 295.464C221.928 286.166 214.694 279.492 207.779 272.445C199.08 263.574 192.91 252.95 188.501 241.324C188.129 240.338 187.725 239.361 187.244 238.158C179.359 241.448 172.716 239.71 168.052 233.998C163.543 234.44 159.608 235.519 155.875 235.045C148.137 234.068 142.86 226.71 143.69 218.911C143.993 216.031 144.854 213.214 145.126 210.335C145.258 208.961 144.909 207.362 144.272 206.128C142.689 203.04 140.819 200.106 138.514 197.087C138.452 198.049 138.374 199.004 138.343 199.966C138.195 204.894 138.715 209.955 137.776 214.735C135.774 224.949 129.333 231.421 119.15 233.998C118.32 234.207 117.482 234.425 116.426 234.688C116.426 235.775 116.426 236.823 116.426 237.878C116.426 252.888 116.426 267.89 116.426 282.899C116.426 289.76 112.406 292.662 106.523 289.317C100.431 285.856 94.9984 285.561 89.2476 289.612C86.1122 291.816 82.6897 291.917 79.4612 289.775C72.8023 285.352 66.3142 285.514 59.7408 289.985C57.0244 291.832 54.0908 291.715 51.2348 290.093C51.1495 290.047 51.0563 290.008 50.9787 289.954C44.5372 285.833 38.3207 285.383 31.5222 289.744C27.3003 292.453 22.9464 289.302 22.9309 284.164C22.8843 268.867 22.9154 253.571 22.9076 238.274C22.9076 237.118 22.9076 235.969 22.9076 234.782C20.7967 234.192 18.8021 233.78 16.924 233.082C7.07543 229.411 0.936569 220.509 0.936569 209.745C0.913287 148.263 0.921048 86.7817 0.936569 25.3C0.936569 23.8564 1.02194 22.3896 1.27805 20.9694C3.14842 10.5776 10.2186 3.25131 20.5328 0.923046C20.9907 0.822154 21.4098 0.581567 21.8521 0.410828C53.8037 0.410828 85.7552 0.410828 117.707 0.410828L117.73 0.42635ZM107.587 234.813H31.8792V280.136C33.3227 279.469 34.5024 279.057 35.5423 278.406C38.8795 276.326 42.3331 275.938 45.6237 278.173C52.43 282.79 58.9957 282.208 65.6235 277.854C68.1846 276.17 70.8621 276.395 73.6172 277.707C77.0165 279.314 80.5399 281.898 83.978 281.851C87.5169 281.797 91.0481 279.143 94.525 277.497C96.8067 276.419 98.9487 276.442 101.199 277.513C103.248 278.491 105.367 279.314 107.587 280.26V234.813ZM181.54 204.212C179.747 205.709 177.396 206.679 176.977 208.201C175.494 213.478 174.509 218.911 173.702 224.335C173.321 226.881 174.773 229.015 177.093 230.273C179.305 231.468 181.944 231.693 183.535 229.853C184.443 228.798 184.016 226.392 183.837 224.63C183.185 218.127 182.394 211.631 181.548 204.212H181.54ZM153.446 213.734C153.089 215.845 152.53 217.979 152.398 220.152C152.196 223.443 154.462 226.066 157.714 226.687C160.702 227.261 163.853 225.616 164.792 222.566C165.708 219.578 166.189 216.45 166.779 213.734H153.438H153.446ZM112.072 166.641H102.565V174.037H112.072V166.641Z" fill="#5459FA"/>
<path d="M107.214 216.008C105.181 216.008 103.147 216.109 101.122 215.985C97.28 215.752 94.1602 213.113 93.8652 209.341C93.5626 205.407 93.5626 201.41 93.8808 197.475C94.1757 193.835 97.2567 191.127 100.943 190.971C105.095 190.801 109.263 190.801 113.423 190.956C117.388 191.103 120.423 193.905 120.726 197.871C121.005 201.526 121.005 205.228 120.749 208.876C120.446 213.113 117.334 215.83 113.027 216.016C111.094 216.101 109.154 216.031 107.222 216.031C107.222 216.024 107.222 216.016 107.222 216.008H107.214ZM102.511 199.687V207.184H111.948V199.687H102.511Z" fill="#5459FA"/>
<path d="M32.1425 216.016C30.1092 216.016 28.0758 216.109 26.0425 216C21.7507 215.768 18.5998 212.655 18.429 208.364C18.2971 205.081 18.2893 201.775 18.429 198.492C18.6153 194.216 21.7895 191.08 26.1045 190.933C30.0703 190.801 34.0439 190.793 38.0097 190.933C42.4102 191.096 45.4912 194.34 45.662 198.841C45.7706 201.837 45.7628 204.84 45.6697 207.844C45.53 212.741 42.317 215.884 37.3656 216.031C35.6271 216.086 33.8809 216.039 32.1425 216.039C32.1425 216.031 32.1425 216.016 32.1425 216.008V216.016ZM27.2687 199.703V207.13H36.8068V199.703H27.2687Z" fill="#5459FA"/>
<path d="M32.0727 182.923C30.1402 182.923 28.2 182.993 26.2675 182.916C21.805 182.729 18.5998 179.625 18.4213 175.201C18.2971 172.012 18.3049 168.814 18.4213 165.624C18.5765 161.185 21.7818 157.957 26.1822 157.832C30.0471 157.724 33.9275 157.732 37.7925 157.832C42.092 157.941 45.3748 160.983 45.6154 165.244C45.8094 168.62 45.8017 172.027 45.6232 175.403C45.3981 179.687 42.1851 182.722 37.8778 182.916C35.9454 183.001 34.0051 182.931 32.0727 182.931V182.923ZM27.2299 174.068H36.7447V166.657H27.2299V174.068Z" fill="#5459FA"/>
<path d="M69.7048 157.794C71.5441 157.794 73.3834 157.747 75.2228 157.809C79.6154 157.941 82.8362 160.689 83.2087 165.058C83.5036 168.512 83.4959 172.035 83.232 175.496C82.8905 180.029 79.693 182.823 75.1141 182.924C71.4354 183.001 67.7568 183.017 64.0859 182.924C59.3052 182.799 56.2008 179.648 56.0689 174.821C55.9835 171.826 55.9835 168.822 56.0689 165.819C56.2164 161.038 59.3906 157.941 64.1868 157.809C66.0261 157.763 67.8654 157.802 69.7048 157.809V157.794ZM64.9551 166.665V174.068H74.4699V166.665H64.9551Z" fill="#5459FA"/>
<path d="M69.5894 190.894C71.5219 190.894 73.4621 190.832 75.3945 190.91C79.6708 191.096 82.8062 193.773 83.1865 198.034C83.5047 201.581 83.4969 205.205 83.202 208.76C82.845 213.129 79.6475 215.9 75.2316 216.024C71.5529 216.125 67.8742 216.125 64.2034 216.031C59.3683 215.915 56.2252 212.811 56.0777 208.03C55.9846 205.034 55.9923 202.031 56.0777 199.027C56.2096 194.192 59.2907 191.08 64.0792 190.902C65.9185 190.832 67.7578 190.894 69.5972 190.902L69.5894 190.894ZM64.9018 207.176H74.4865V199.772H64.9018V207.176Z" fill="#5459FA"/>
<path d="M32.0964 124.701C34.0288 124.701 35.969 124.631 37.9015 124.717C42.1855 124.911 45.4063 127.976 45.6236 132.26C45.7943 135.636 45.8098 139.043 45.6081 142.419C45.3675 146.587 42.2398 149.622 38.049 149.784C33.99 149.94 29.9156 149.947 25.8566 149.769C21.7045 149.59 18.6157 146.432 18.4295 142.28C18.282 138.997 18.2898 135.698 18.4217 132.408C18.5924 128 21.8365 124.888 26.2835 124.709C28.2159 124.631 30.1561 124.694 32.0886 124.701H32.0964ZM36.8305 141.007V133.572H27.2458V141.007H36.8305Z" fill="#5459FA"/>
<path d="M69.6893 124.686C71.5287 124.686 73.368 124.639 75.2073 124.701C79.7241 124.857 82.9139 127.705 83.2476 132.237C83.4882 135.512 83.4804 138.826 83.2786 142.101C82.9837 146.773 79.8328 149.699 75.1297 149.831C71.3579 149.94 67.5784 149.948 63.8066 149.8C59.2898 149.622 56.2475 146.525 56.0845 142.016C55.9759 138.919 55.9759 135.823 56.069 132.726C56.2087 127.938 59.3751 124.841 64.1713 124.694C66.0107 124.639 67.85 124.686 69.6893 124.694V124.686ZM74.4623 140.999V133.588H64.9086V140.999H74.4623Z" fill="#5459FA"/>
<path d="M163.698 82.0709C160.531 81.9079 157.326 81.3491 154.206 81.6673C143.915 82.7073 136.954 88.2873 133.236 97.9264C132.996 98.555 132.841 99.2224 132.569 99.8433C131.552 102.172 129.364 103.25 127.152 102.552C124.878 101.83 123.644 99.4708 124.389 96.9407C126.958 88.1865 132.196 81.4888 140.159 77.003C147.842 72.6802 156.022 71.7334 164.552 73.7512C167.268 74.3954 168.641 76.3977 168.261 78.8036C167.912 80.9688 166.042 82.4279 163.698 82.0631V82.0709Z" fill="#5459FA"/>
<path d="M157.171 90.1734C157.955 90.2899 159.135 90.3519 160.245 90.6469C162.72 91.2988 164.016 93.2623 163.652 95.6216C163.31 97.9033 161.416 99.2692 158.809 99.1916C157.28 99.145 155.402 98.6638 154.292 99.3546C152.46 100.495 150.784 102.226 149.651 104.089C148.099 106.626 146.174 107.923 143.846 107.061C141.393 106.153 140.478 103.739 141.455 100.821C143.636 94.341 150.023 89.9096 157.171 90.1734Z" fill="#5459FA"/>
<path d="M160.454 117.228C157.862 117.282 154.54 113.402 154.579 110.359C154.61 108.023 156.473 106.161 158.832 106.122C161.447 106.075 164.753 109.932 164.722 112.975C164.699 115.272 162.782 117.181 160.462 117.228H160.454Z" fill="#5459FA"/>
</svg>
