<?xml version="1.0" encoding="utf-8"?>
<svg xmlns="http://www.w3.org/2000/svg" viewBox="0 0 500 500" width="500px" height="500px"><defs><clipPath id="clip0_208_1827"><rect width="79.9496" height="111.445" fill="white" transform="translate(0.384338 25.791) rotate(-18.0784)"/></clipPath></defs><path d="M 89.491 169.001 L 39.121 169.001 L 39.121 87.977 L 89.01 87.977 L 89.01 102.763 L 57.754 102.763 L 57.754 121.156 L 85.644 121.156 L 85.644 135.822 L 57.754 135.822 L 57.754 154.214 L 89.491 154.214 L 89.491 169.001 Z M 145.505 150.608 C 145.505 156.618 143.34 161.266 139.014 164.553 C 134.686 167.839 128.955 169.481 121.823 169.481 C 114.449 169.481 108.278 168.24 103.31 165.755 L 103.31 150.127 C 108.839 153.974 114.69 155.898 120.861 155.898 C 125.269 155.898 127.473 154.495 127.473 151.69 C 127.473 150.968 127.272 150.288 126.871 149.646 C 126.471 149.005 125.789 148.405 124.827 147.843 C 123.865 147.282 122.984 146.841 122.183 146.52 C 121.382 146.12 120.219 145.598 118.696 144.958 C 117.175 144.317 116.012 143.796 115.211 143.395 C 107.116 139.548 103.069 133.778 103.069 126.084 C 103.069 120.154 105.312 115.546 109.801 112.26 C 114.369 108.973 120.02 107.331 126.751 107.331 C 133.002 107.331 138.211 108.172 142.38 109.856 L 142.38 124.882 C 138.131 122.397 133.163 121.156 127.473 121.156 C 125.388 121.156 123.786 121.596 122.664 122.478 C 121.541 123.279 120.981 124.321 120.981 125.603 C 120.981 126.325 121.181 127.006 121.582 127.647 C 121.982 128.288 122.624 128.89 123.505 129.45 C 124.467 130.011 125.348 130.532 126.15 131.013 C 127.032 131.413 128.193 131.934 129.636 132.576 C 131.159 133.216 132.362 133.778 133.243 134.258 C 136.929 136.182 139.895 138.427 142.139 140.991 C 144.382 143.475 145.505 146.681 145.505 150.608 Z M 201.83 166.115 C 197.102 168.68 191.412 169.962 184.76 169.962 C 175.624 169.962 168.09 167.077 162.16 161.307 C 156.229 155.457 153.264 147.924 153.264 138.707 C 153.424 129.57 156.39 122.037 162.16 116.106 C 167.931 110.096 175.824 107.09 185.842 107.09 C 192.013 107.09 197.343 108.252 201.83 110.576 L 201.83 125.603 C 197.583 122.959 192.855 121.636 187.645 121.636 C 182.756 121.636 178.79 123.119 175.744 126.084 C 172.699 128.969 171.136 133.177 171.056 138.707 C 171.376 144.077 172.979 148.244 175.865 151.209 C 178.75 154.174 182.557 155.657 187.285 155.657 C 192.334 155.657 197.182 154.254 201.83 151.449 L 201.83 166.115 Z M 234.98 156.979 C 237.465 156.979 239.388 156.218 240.75 154.695 C 242.113 153.172 242.794 151.089 242.794 148.444 L 242.794 143.996 L 237.143 143.996 C 234.179 143.996 231.895 144.637 230.292 145.92 C 228.688 147.202 227.887 148.845 227.887 150.848 C 227.887 154.936 230.252 156.979 234.98 156.979 Z M 243.636 161.548 C 241.071 166.757 236.022 169.361 228.489 169.361 C 222.558 169.361 217.91 167.678 214.543 164.312 C 211.258 160.946 209.614 156.739 209.614 151.69 C 209.614 145.84 211.739 141.311 215.986 138.105 C 220.314 134.82 226.685 133.177 235.1 133.177 L 242.794 133.177 L 242.794 128.969 C 242.794 123.84 239.388 121.276 232.576 121.276 C 226.004 121.276 219.913 123.119 214.304 126.806 L 214.304 111.057 C 219.111 108.333 226.044 106.97 235.1 106.97 C 243.756 106.97 250.207 108.854 254.455 112.62 C 258.702 116.307 260.826 122.077 260.826 129.931 L 260.826 169.001 L 243.636 169.001 L 243.636 161.548 Z M 330.506 169.001 L 312.954 169.001 L 312.954 132.696 C 312.954 129.089 312.113 126.365 310.429 124.522 C 308.747 122.598 306.383 121.636 303.337 121.636 C 300.131 121.636 297.446 122.918 295.283 125.483 C 293.198 127.968 292.158 131.735 292.158 136.783 L 292.158 169.001 L 274.605 169.001 L 274.605 108.052 L 292.158 108.052 L 292.158 118.391 C 293.679 115.025 296.003 112.379 299.13 110.456 C 302.335 108.453 306.142 107.451 310.55 107.451 C 316.801 107.451 321.689 109.335 325.216 113.101 C 328.743 116.788 330.506 122.238 330.506 129.45 L 330.506 169.001 Z M 392.185 165.515 C 388.018 168.24 381.646 169.602 373.07 169.602 C 363.052 169.602 355.239 166.717 349.629 160.946 C 344.099 155.095 341.334 147.602 341.334 138.466 C 341.334 128.769 344.018 121.196 349.388 115.745 C 354.839 110.216 361.531 107.451 369.464 107.451 C 377.639 107.451 384.09 109.856 388.819 114.664 C 393.547 119.393 395.911 126.485 395.911 135.942 C 395.911 137.785 395.591 140.95 394.949 145.439 L 359.126 145.439 C 360.328 148.805 362.412 151.409 365.376 153.252 C 368.342 155.095 371.909 156.018 376.076 156.018 C 382.247 156.018 387.617 154.294 392.185 150.848 L 392.185 165.515 Z M 370.185 120.795 C 367.38 120.795 364.896 121.836 362.732 123.92 C 360.569 125.924 359.126 128.929 358.404 132.936 L 379.563 132.936 L 379.563 131.494 C 379.002 124.361 375.875 120.795 370.185 120.795 Z M 430.799 156.979 C 433.282 156.979 435.206 156.218 436.568 154.695 C 437.931 153.172 438.612 151.089 438.612 148.444 L 438.612 143.996 L 432.962 143.996 C 429.996 143.996 427.713 144.637 426.109 145.92 C 424.507 147.202 423.705 148.845 423.705 150.848 C 423.705 154.936 426.069 156.979 430.799 156.979 Z M 439.453 161.548 C 436.889 166.757 431.84 169.361 424.306 169.361 C 418.376 169.361 413.727 167.678 410.362 164.312 C 407.075 160.946 405.433 156.739 405.433 151.69 C 405.433 145.84 407.556 141.311 411.804 138.105 C 416.131 134.82 422.503 133.177 430.918 133.177 L 438.612 133.177 L 438.612 128.969 C 438.612 123.84 435.206 121.276 428.394 121.276 C 421.822 121.276 415.731 123.119 410.121 126.806 L 410.121 111.057 C 414.93 108.333 421.862 106.97 430.918 106.97 C 439.574 106.97 446.025 108.854 450.273 112.62 C 454.521 116.307 456.644 122.077 456.644 129.931 L 456.644 169.001 L 439.453 169.001 L 439.453 161.548 Z M 105.389 279.68 C 102.263 287.935 98.536 293.746 94.209 297.112 C 89.961 300.477 85.072 302.161 79.543 302.161 C 77.458 302.161 75.776 301.96 74.494 301.559 L 74.494 293.024 C 75.696 293.344 77.058 293.505 78.581 293.505 C 86.675 293.505 92.406 288.897 95.772 279.68 L 71.128 220.294 L 81.826 220.294 L 89.76 240.37 L 100.46 268.02 C 101.101 265.936 104.307 256.72 110.077 240.37 L 117.17 220.294 L 127.388 220.294 L 105.389 279.68 Z M 181.334 303.724 L 163.783 303.724 L 163.783 220.294 L 181.334 220.294 L 181.334 229.671 C 185.581 222.94 191.713 219.574 199.727 219.574 C 207.581 219.574 213.872 222.378 218.601 227.988 C 223.409 233.518 225.814 241.051 225.814 250.588 C 225.814 259.644 223.49 267.138 218.841 273.068 C 214.273 279 207.902 281.964 199.727 281.964 C 191.472 281.964 185.341 278.718 181.334 272.227 L 181.334 303.724 Z M 181.334 250.107 C 181.334 255.316 182.617 259.485 185.181 262.61 C 187.746 265.736 191.032 267.298 195.039 267.298 C 198.885 267.298 202.011 265.855 204.416 262.97 C 206.82 260.006 208.022 255.998 208.022 250.95 C 208.022 245.419 206.78 241.252 204.295 238.447 C 201.891 235.562 198.806 234.119 195.039 234.119 C 191.352 234.119 188.146 235.521 185.422 238.326 C 182.697 241.131 181.334 245.059 181.334 250.107 Z M 259.633 269.221 C 262.118 269.221 264.041 268.461 265.404 266.938 C 266.766 265.415 267.448 263.332 267.448 260.686 L 267.448 256.239 L 261.798 256.239 C 258.832 256.239 256.548 256.88 254.945 258.163 C 253.342 259.445 252.541 261.087 252.541 263.091 C 252.541 267.179 254.905 269.221 259.633 269.221 Z M 268.289 273.79 C 265.724 279 260.675 281.604 253.142 281.604 C 247.211 281.604 242.563 279.921 239.197 276.555 C 235.911 273.189 234.269 268.982 234.269 263.932 C 234.269 258.082 236.392 253.554 240.639 250.348 C 244.967 247.062 251.339 245.419 259.754 245.419 L 267.448 245.419 L 267.448 241.212 C 267.448 236.083 264.041 233.518 257.229 233.518 C 250.657 233.518 244.567 235.361 238.957 239.048 L 238.957 223.3 C 243.766 220.575 250.697 219.212 259.754 219.212 C 268.409 219.212 274.86 221.095 279.108 224.863 C 283.355 228.549 285.48 234.32 285.48 242.173 L 285.48 281.243 L 268.289 281.243 L 268.289 273.79 Z M 355.76 275.352 C 355.76 285.13 352.835 292.463 346.984 297.352 C 341.133 302.321 333.801 304.805 324.984 304.805 C 316.409 304.805 308.916 303.283 302.505 300.237 L 302.505 282.326 C 308.115 286.813 315.007 289.058 323.181 289.058 C 328.471 289.058 332.318 287.935 334.722 285.692 C 337.127 283.447 338.328 279.921 338.328 275.112 L 338.328 271.024 C 334.803 276.475 329.193 279.199 321.499 279.199 C 314.767 279.199 308.956 276.715 304.067 271.746 C 299.26 266.777 296.855 259.404 296.855 249.626 C 296.855 240.972 299.179 233.839 303.827 228.228 C 308.556 222.538 314.727 219.693 322.34 219.693 C 329.553 219.693 334.883 222.578 338.328 228.349 L 338.328 220.294 L 355.76 220.294 L 355.76 275.352 Z M 315.127 249.747 C 315.127 254.797 316.089 258.642 318.012 261.288 C 319.936 263.932 322.701 265.255 326.308 265.255 C 330.074 265.255 333 263.853 335.083 261.047 C 337.247 258.163 338.328 254.716 338.328 250.709 C 338.328 239.809 334.362 234.36 326.427 234.36 C 322.901 234.36 320.137 235.722 318.133 238.447 C 316.129 241.171 315.127 244.938 315.127 249.747 Z M 391.94 269.221 C 394.424 269.221 396.347 268.461 397.709 266.938 C 399.073 265.415 399.753 263.332 399.753 260.686 L 399.753 256.239 L 394.103 256.239 C 391.138 256.239 388.854 256.88 387.251 258.163 C 385.649 259.445 384.846 261.087 384.846 263.091 C 384.846 267.179 387.212 269.221 391.94 269.221 Z M 400.595 273.79 C 398.031 279 392.981 281.604 385.448 281.604 C 379.518 281.604 374.869 279.921 371.504 276.555 C 368.217 273.189 366.574 268.982 366.574 263.932 C 366.574 258.082 368.698 253.554 372.946 250.348 C 377.273 247.062 383.645 245.419 392.059 245.419 L 399.753 245.419 L 399.753 241.212 C 399.753 236.083 396.347 233.518 389.536 233.518 C 382.963 233.518 376.872 235.361 371.263 239.048 L 371.263 223.3 C 376.071 220.575 383.003 219.212 392.059 219.212 C 400.715 219.212 407.167 221.095 411.415 224.863 C 415.662 228.549 417.786 234.32 417.786 242.173 L 417.786 281.243 L 400.595 281.243 L 400.595 273.79 Z M 157.615 382.646 C 160.1 382.646 162.023 381.885 163.386 380.362 C 164.748 378.839 165.43 376.756 165.43 374.111 L 165.43 369.663 L 159.78 369.663 C 156.814 369.663 154.53 370.304 152.927 371.587 C 151.324 372.869 150.523 374.511 150.523 376.515 C 150.523 380.603 152.887 382.646 157.615 382.646 Z M 166.271 387.215 C 163.706 392.424 158.657 395.028 151.124 395.028 C 145.193 395.028 140.545 393.345 137.179 389.979 C 133.893 386.613 132.251 382.406 132.251 377.356 C 132.251 371.507 134.374 366.978 138.621 363.772 C 142.949 360.487 149.321 358.843 157.736 358.843 L 165.43 358.843 L 165.43 354.636 C 165.43 349.507 162.023 346.942 155.211 346.942 C 148.639 346.942 142.549 348.785 136.939 352.473 L 136.939 336.724 C 141.748 334 148.679 332.636 157.736 332.636 C 166.391 332.636 172.842 334.52 177.09 338.287 C 181.337 341.974 183.462 347.744 183.462 355.598 L 183.462 394.668 L 166.271 394.668 L 166.271 387.215 Z M 212.028 364.374 C 212.028 369.262 213.31 373.229 215.874 376.275 C 218.439 379.239 221.564 380.722 225.251 380.722 C 229.258 380.722 232.503 379.16 234.988 376.034 C 237.473 372.909 238.715 368.741 238.715 363.531 C 238.715 358.483 237.352 354.556 234.628 351.751 C 231.984 348.946 228.817 347.543 225.131 347.543 C 221.445 347.543 218.318 349.026 215.754 351.992 C 213.27 354.956 212.028 359.084 212.028 364.374 Z M 256.266 417.148 L 238.715 417.148 L 238.715 385.171 C 234.628 391.983 228.537 395.388 220.443 395.388 C 212.268 395.388 205.856 392.424 201.208 386.493 C 196.56 380.563 194.236 373.068 194.236 364.012 C 194.236 354.475 196.64 346.942 201.449 341.412 C 206.258 335.803 212.628 332.998 220.563 332.998 C 228.497 332.998 234.547 336.364 238.715 343.095 L 238.715 333.719 L 256.266 333.719 L 256.266 417.148 Z M 326.03 394.668 L 308.479 394.668 L 308.479 384.93 C 305.273 391.742 299.102 395.148 289.966 395.148 C 283.715 395.148 278.825 393.426 275.3 389.979 C 271.853 386.453 270.131 381.283 270.131 374.471 L 270.131 333.719 L 287.682 333.719 L 287.682 370.505 C 287.682 377.637 290.807 381.203 297.058 381.203 C 304.672 381.203 308.479 376.114 308.479 365.936 L 308.479 333.719 L 326.03 333.719 L 326.03 394.668 Z M 358.618 394.668 L 341.066 394.668 L 341.066 333.719 L 358.618 333.719 L 358.618 394.668 Z M 358.017 328.069 L 343.47 328.069 L 353.81 306.791 L 371.361 306.791 L 358.017 328.069 Z" fill="#5558F9" style=""/><g clip-path="url(#clip0_208_1827)" transform="matrix(1.324217, 0, 0, 1.324217, 386.702148, 299.64798)" style=""><path d="M28.6983 33.8825C30.1585 33.4357 30.5513 32.0506 29.6617 31.1977C28.1025 29.7075 26.4853 28.2782 24.8554 26.8649C24.1856 26.2815 23.2428 26.3858 22.6786 26.9889C22.0745 27.635 22.0829 28.5601 22.7954 29.2193C24.3334 30.6446 25.8841 32.0538 27.4837 33.4111C27.8635 33.73 28.4539 33.7947 28.6983 33.8825ZM27.349 36.6333C27.1788 36.4974 26.8467 36.0491 26.4295 35.9459C24.2713 35.4293 22.0965 34.9721 19.9142 34.5652C19.065 34.4054 18.3786 34.9647 18.204 35.7699C18.0442 36.5104 18.4258 37.3674 19.174 37.5482C21.3952 38.0741 23.6238 38.5676 25.8747 38.9462C26.9777 39.1308 27.7869 37.9748 27.349 36.6333ZM50.0741 26.5755C49.6228 25.0828 48.2092 24.7362 47.3132 25.6811C45.8928 27.1863 44.5172 28.7366 43.1559 30.2943C42.4771 31.0785 42.5376 32.0165 43.2164 32.6089C43.8701 33.1796 44.789 33.149 45.4584 32.4277C46.8916 30.8885 48.2997 29.3275 49.6576 27.723C49.9554 27.3684 49.9952 26.7928 50.0723 26.5701L50.0741 26.5755ZM42.006 21.9248C41.5646 21.6559 41.101 21.2087 40.5613 21.0976C39.8922 20.9569 39.182 21.2964 39.0099 21.9991C38.4673 24.2472 37.966 26.5117 37.5781 28.7931C37.4113 29.7873 38.4077 30.5634 39.3834 30.3765C40.1951 30.2193 40.5573 29.6402 40.7136 28.8889C41.117 26.9855 41.5276 25.0857 41.9167 23.175C41.9837 22.8479 41.9679 22.5059 42.006 21.9248ZM33.9166 25.6907C33.6112 24.755 33.3202 23.8085 32.9985 22.878C32.6306 21.8429 31.8142 21.3612 30.9424 21.6278C30.0381 21.9051 29.6576 22.7954 30.0069 23.9024C30.584 25.7252 31.1827 27.5409 31.7868 29.3548C32.1577 30.4727 32.958 30.9417 33.8805 30.6286C34.7868 30.3208 35.1311 29.4662 34.7855 28.334C34.5139 27.447 34.2116 26.5761 33.9238 25.6944L33.9166 25.6907ZM22.7811 42.6136C21.8442 42.9194 20.8984 43.2162 19.965 43.5328C18.9214 43.8974 18.446 44.6991 18.7266 45.5771C19.0037 46.4443 19.8819 46.858 20.9215 46.5366C22.7753 45.9554 24.6275 45.3508 26.4671 44.7263C27.563 44.3566 28.044 43.5172 27.7257 42.6156C27.4145 41.7356 26.5828 41.3906 25.5106 41.7226C24.5955 42.0034 23.6909 42.3166 22.7811 42.6136ZM50.8409 36.7819C51.7778 36.4761 52.7254 36.1847 53.657 35.8626C54.6898 35.5016 55.1726 34.6676 54.9027 33.804C54.6256 32.9368 53.7384 32.5321 52.7023 32.8643C50.8177 33.4615 48.9439 34.0732 47.07 34.7028C46.0554 35.046 45.6253 35.8029 45.8825 36.6826C46.1503 37.5948 46.9798 38.0064 48.0302 37.6994C48.9759 37.4206 49.9112 37.0914 50.8481 36.7855L50.8409 36.7819Z" fill="white"/><path d="M53.9763 114.055C53.0027 113.918 52.4733 113.342 52.2201 112.402C51.2566 108.808 49.418 105.727 46.9016 102.975C42.9044 98.6053 39.3472 93.8947 36.7976 88.5259C35.5539 85.9092 34.4603 83.2016 33.475 80.4767C32.2931 77.2233 31.2882 73.9061 30.2291 70.6067C28.7287 65.9369 30.8895 61.6882 35.5291 60.1318C35.8757 60.0186 36.2223 59.9055 36.6718 59.7587C36.5341 59.3368 36.4211 58.9906 36.3098 58.6499C34.5053 53.1217 32.6899 47.5971 30.8962 42.0655C29.8952 38.9625 30.7926 36.1856 33.3078 34.4548C36.5071 32.2492 41.1874 33.5346 42.5433 37.1741C44.0337 41.1707 45.2731 45.2613 46.619 49.3111C46.7426 49.6897 46.8645 50.0629 47.0146 50.5227C50.4486 47.6779 53.6866 47.7941 56.8273 50.9348C58.1686 49.3896 59.8387 48.5392 61.8685 48.5709C63.9038 48.6008 65.5352 49.5228 66.8238 51.0654C69.5702 47.8764 73.2693 48.267 75.3959 49.7516C76.5829 50.5791 77.4025 51.6763 77.8367 53.0429C79.5536 58.468 81.4132 63.8525 82.91 69.3374C84.5809 75.4658 84.8457 81.7659 84.323 88.0956C84.2507 88.9572 84.2162 89.8244 84.1007 90.6821C83.6058 94.435 83.9817 98.0831 85.3563 101.615C85.7034 102.513 85.637 103.301 84.8922 103.975L53.9799 114.066L53.9763 114.055ZM37.6783 62.8419C33.7431 63.5459 32.1096 66.2339 33.305 69.8959C34.2832 72.8925 35.274 75.8911 36.2414 78.8913C38.4885 85.8851 41.9251 92.2272 46.6579 97.8589C48.5024 100.058 50.4464 102.195 52.0809 104.54C53.2997 106.291 54.0932 108.336 55.1052 110.317L81.8637 101.582C81.5141 99.6847 80.9552 97.844 80.89 95.9919C80.7956 93.3531 80.9807 90.689 81.1963 88.0449C81.8082 80.465 81.0716 73.05 78.7163 65.8162C77.4591 61.9649 76.2073 58.1118 74.9447 54.2623C74.3002 52.288 72.6258 51.3442 70.8711 51.9169C69.1761 52.4703 68.3207 54.3476 68.9278 56.2443C69.6374 58.4548 70.3669 60.6528 71.0819 62.8615C71.1772 63.1536 71.2761 63.4565 71.2975 63.7607C71.3714 64.5746 70.8951 65.2448 70.1444 65.442C69.3938 65.6391 68.6594 65.2803 68.3203 64.5351C68.203 64.2861 68.1256 64.0121 68.039 63.747C67.0114 60.5989 66.018 57.4456 64.9308 54.3169C64.6762 53.592 64.209 52.8586 63.6414 52.3496C62.6511 51.4638 61.098 51.5159 60.014 52.2708C58.8468 53.0827 58.3465 54.3773 58.7895 55.771C59.8269 59.0775 60.9293 62.3628 61.9866 65.6569C62.119 66.0626 62.2369 66.497 62.2431 66.9199C62.2527 67.647 61.8549 68.1539 61.1618 68.3622C60.4254 68.5847 59.8055 68.3561 59.3991 67.6986C59.2084 67.3898 59.0991 67.0184 58.9844 66.6669C57.6601 62.61 56.3358 58.5532 55.0061 54.4981C54.8542 54.0329 54.67 53.5603 54.4242 53.1378C53.7474 51.9641 52.2867 51.3994 50.9783 51.7607C49.0366 52.2928 48.1894 54.0298 48.8778 56.1754C50.2052 60.297 51.5652 64.408 52.898 68.5279C53.0322 68.939 53.17 69.3609 53.1996 69.7822C53.2507 70.5077 52.8779 71.0364 52.199 71.288C51.4767 71.5537 50.8294 71.3699 50.4086 70.7232C50.1589 70.3438 50.0106 69.8895 49.8675 69.4513C46.6185 59.5165 43.3803 49.5782 40.1295 39.638C39.9953 39.2269 39.8611 38.8158 39.689 38.4171C39.0572 36.9773 37.5579 36.2577 36.0152 36.6355C34.5394 36.9976 33.5175 38.4385 33.6947 39.9908C33.7543 40.504 33.9041 41.0178 34.0665 41.5154C38.1345 54.014 42.2133 66.5091 46.2867 79.006C46.4103 79.3846 46.5608 79.7724 46.5996 80.1667C46.6774 80.9374 46.299 81.5039 45.593 81.7643C44.9285 82.0051 44.2847 81.8502 43.8636 81.2394C43.6245 80.8925 43.4579 80.474 43.3255 80.0684C41.5578 74.6898 39.8026 69.3131 38.0403 63.9328C37.9256 63.5812 37.8108 63.2296 37.6801 62.8294L37.6783 62.8419Z" fill="#696979"/><path d="M28.6984 33.8825C28.454 33.7947 27.8581 33.7318 27.4838 33.411C25.8859 32.0592 24.3298 30.6518 22.7955 29.2193C22.0829 28.5601 22.08 27.6333 22.6787 26.9889C23.2429 26.3858 24.1857 26.2815 24.8555 26.8649C26.4854 28.2782 28.1026 29.7075 29.6617 31.1977C30.5514 32.0506 30.1568 33.4303 28.6984 33.8825Z" fill="#696979"/><path d="M27.3491 36.6333C27.787 37.9748 26.9795 39.1362 25.8748 38.9462C23.6292 38.5659 21.3934 38.0687 19.174 37.5482C18.4205 37.3692 18.0442 36.5104 18.204 35.7699C18.3732 34.9665 19.065 34.4054 19.9142 34.5652C22.0965 34.9721 24.2713 35.4293 26.4295 35.9459C26.845 36.0437 27.1788 36.4974 27.3491 36.6333Z" fill="#696979"/><path d="M50.0741 26.5755C49.997 26.7982 49.9572 27.3738 49.6594 27.7284C48.3015 29.3329 46.8934 30.8939 45.4602 32.4331C44.7908 33.1544 43.8719 33.185 43.2182 32.6143C42.5394 32.0219 42.4771 31.0785 43.1577 30.2997C44.5172 28.7366 45.8928 27.1862 47.3149 25.6865C48.211 24.7416 49.6174 25.0846 50.0759 26.5809L50.0741 26.5755Z" fill="#696979"/><path d="M42.006 21.9248C41.968 22.5059 41.9837 22.8479 41.9167 23.175C41.5259 25.0803 41.1171 26.9855 40.7136 28.8889C40.5556 29.6348 40.1879 30.2157 39.3835 30.3765C38.4149 30.567 37.4131 29.7927 37.5782 28.7931C37.9661 26.5117 38.4691 24.2526 39.0099 21.999C39.1767 21.2982 39.8922 20.9569 40.5614 21.0975C41.0956 21.2105 41.5664 21.6613 42.006 21.9248Z" fill="#696979"/><path d="M33.9221 25.689C34.2099 26.5707 34.5068 27.4434 34.7838 28.3286C35.1348 29.459 34.7851 30.3154 33.8788 30.6232C32.9563 30.9363 32.1632 30.471 31.7851 29.3494C31.181 27.5355 30.5823 25.7198 30.0052 23.897C29.6559 22.79 30.0364 21.8996 30.9407 21.6224C31.8125 21.3558 32.6289 21.8375 32.9968 22.8726C33.3239 23.8013 33.6095 24.7495 33.9149 25.6853L33.9221 25.689Z" fill="#696979"/><path d="M22.7883 42.6172C23.6981 42.3202 24.6044 42.0124 25.5178 41.7262C26.59 41.3942 27.4217 41.7392 27.7329 42.6192C28.0513 43.5209 27.5702 44.3603 26.4743 44.7299C24.6329 45.349 22.7825 45.959 20.9287 46.5402C19.8908 46.867 19.0073 46.4552 18.7338 45.5807C18.4532 44.7027 18.9286 43.9011 19.9722 43.5365C20.9038 43.2144 21.8514 42.923 22.7883 42.6172Z" fill="#696979"/><path d="M50.8464 36.7801C49.9095 37.086 48.9742 37.4152 48.0285 37.694C46.9781 38.001 46.1486 37.5894 45.8808 36.6772C45.6236 35.7975 46.0483 35.0424 47.0683 34.6974C48.9404 34.0624 50.816 33.4561 52.7005 32.8589C53.7384 32.5321 54.6293 32.9296 54.901 33.7986C55.1763 34.6604 54.688 35.4962 53.6553 35.8572C52.7255 36.1847 51.7761 36.4707 50.8392 36.7765L50.8464 36.7801Z" fill="#696979"/></g></svg>