<?xml version="1.0" encoding="utf-8"?>
<svg xmlns="http://www.w3.org/2000/svg" viewBox="0 0 500 500" width="500px" height="500px"><defs><clipPath id="clip0_208_1827"><rect width="79.9496" height="111.445" fill="white" transform="translate(0.384338 25.791) rotate(-18.0784)"/></clipPath></defs><g clip-path="url(#clip0_208_1827)" transform="matrix(1.324217, 0, 0, 1.324217, 386.702148, 299.64798)" style=""><path d="M28.6983 33.8825C30.1585 33.4357 30.5513 32.0506 29.6617 31.1977C28.1025 29.7075 26.4853 28.2782 24.8554 26.8649C24.1856 26.2815 23.2428 26.3858 22.6786 26.9889C22.0745 27.635 22.0829 28.5601 22.7954 29.2193C24.3334 30.6446 25.8841 32.0538 27.4837 33.4111C27.8635 33.73 28.4539 33.7947 28.6983 33.8825ZM27.349 36.6333C27.1788 36.4974 26.8467 36.0491 26.4295 35.9459C24.2713 35.4293 22.0965 34.9721 19.9142 34.5652C19.065 34.4054 18.3786 34.9647 18.204 35.7699C18.0442 36.5104 18.4258 37.3674 19.174 37.5482C21.3952 38.0741 23.6238 38.5676 25.8747 38.9462C26.9777 39.1308 27.7869 37.9748 27.349 36.6333ZM50.0741 26.5755C49.6228 25.0828 48.2092 24.7362 47.3132 25.6811C45.8928 27.1863 44.5172 28.7366 43.1559 30.2943C42.4771 31.0785 42.5376 32.0165 43.2164 32.6089C43.8701 33.1796 44.789 33.149 45.4584 32.4277C46.8916 30.8885 48.2997 29.3275 49.6576 27.723C49.9554 27.3684 49.9952 26.7928 50.0723 26.5701L50.0741 26.5755ZM42.006 21.9248C41.5646 21.6559 41.101 21.2087 40.5613 21.0976C39.8922 20.9569 39.182 21.2964 39.0099 21.9991C38.4673 24.2472 37.966 26.5117 37.5781 28.7931C37.4113 29.7873 38.4077 30.5634 39.3834 30.3765C40.1951 30.2193 40.5573 29.6402 40.7136 28.8889C41.117 26.9855 41.5276 25.0857 41.9167 23.175C41.9837 22.8479 41.9679 22.5059 42.006 21.9248ZM33.9166 25.6907C33.6112 24.755 33.3202 23.8085 32.9985 22.878C32.6306 21.8429 31.8142 21.3612 30.9424 21.6278C30.0381 21.9051 29.6576 22.7954 30.0069 23.9024C30.584 25.7252 31.1827 27.5409 31.7868 29.3548C32.1577 30.4727 32.958 30.9417 33.8805 30.6286C34.7868 30.3208 35.1311 29.4662 34.7855 28.334C34.5139 27.447 34.2116 26.5761 33.9238 25.6944L33.9166 25.6907ZM22.7811 42.6136C21.8442 42.9194 20.8984 43.2162 19.965 43.5328C18.9214 43.8974 18.446 44.6991 18.7266 45.5771C19.0037 46.4443 19.8819 46.858 20.9215 46.5366C22.7753 45.9554 24.6275 45.3508 26.4671 44.7263C27.563 44.3566 28.044 43.5172 27.7257 42.6156C27.4145 41.7356 26.5828 41.3906 25.5106 41.7226C24.5955 42.0034 23.6909 42.3166 22.7811 42.6136ZM50.8409 36.7819C51.7778 36.4761 52.7254 36.1847 53.657 35.8626C54.6898 35.5016 55.1726 34.6676 54.9027 33.804C54.6256 32.9368 53.7384 32.5321 52.7023 32.8643C50.8177 33.4615 48.9439 34.0732 47.07 34.7028C46.0554 35.046 45.6253 35.8029 45.8825 36.6826C46.1503 37.5948 46.9798 38.0064 48.0302 37.6994C48.9759 37.4206 49.9112 37.0914 50.8481 36.7855L50.8409 36.7819Z" fill="white"/><path d="M53.9763 114.055C53.0027 113.918 52.4733 113.342 52.2201 112.402C51.2566 108.808 49.418 105.727 46.9016 102.975C42.9044 98.6053 39.3472 93.8947 36.7976 88.5259C35.5539 85.9092 34.4603 83.2016 33.475 80.4767C32.2931 77.2233 31.2882 73.9061 30.2291 70.6067C28.7287 65.9369 30.8895 61.6882 35.5291 60.1318C35.8757 60.0186 36.2223 59.9055 36.6718 59.7587C36.5341 59.3368 36.4211 58.9906 36.3098 58.6499C34.5053 53.1217 32.6899 47.5971 30.8962 42.0655C29.8952 38.9625 30.7926 36.1856 33.3078 34.4548C36.5071 32.2492 41.1874 33.5346 42.5433 37.1741C44.0337 41.1707 45.2731 45.2613 46.619 49.3111C46.7426 49.6897 46.8645 50.0629 47.0146 50.5227C50.4486 47.6779 53.6866 47.7941 56.8273 50.9348C58.1686 49.3896 59.8387 48.5392 61.8685 48.5709C63.9038 48.6008 65.5352 49.5228 66.8238 51.0654C69.5702 47.8764 73.2693 48.267 75.3959 49.7516C76.5829 50.5791 77.4025 51.6763 77.8367 53.0429C79.5536 58.468 81.4132 63.8525 82.91 69.3374C84.5809 75.4658 84.8457 81.7659 84.323 88.0956C84.2507 88.9572 84.2162 89.8244 84.1007 90.6821C83.6058 94.435 83.9817 98.0831 85.3563 101.615C85.7034 102.513 85.637 103.301 84.8922 103.975L53.9799 114.066L53.9763 114.055ZM37.6783 62.8419C33.7431 63.5459 32.1096 66.2339 33.305 69.8959C34.2832 72.8925 35.274 75.8911 36.2414 78.8913C38.4885 85.8851 41.9251 92.2272 46.6579 97.8589C48.5024 100.058 50.4464 102.195 52.0809 104.54C53.2997 106.291 54.0932 108.336 55.1052 110.317L81.8637 101.582C81.5141 99.6847 80.9552 97.844 80.89 95.9919C80.7956 93.3531 80.9807 90.689 81.1963 88.0449C81.8082 80.465 81.0716 73.05 78.7163 65.8162C77.4591 61.9649 76.2073 58.1118 74.9447 54.2623C74.3002 52.288 72.6258 51.3442 70.8711 51.9169C69.1761 52.4703 68.3207 54.3476 68.9278 56.2443C69.6374 58.4548 70.3669 60.6528 71.0819 62.8615C71.1772 63.1536 71.2761 63.4565 71.2975 63.7607C71.3714 64.5746 70.8951 65.2448 70.1444 65.442C69.3938 65.6391 68.6594 65.2803 68.3203 64.5351C68.203 64.2861 68.1256 64.0121 68.039 63.747C67.0114 60.5989 66.018 57.4456 64.9308 54.3169C64.6762 53.592 64.209 52.8586 63.6414 52.3496C62.6511 51.4638 61.098 51.5159 60.014 52.2708C58.8468 53.0827 58.3465 54.3773 58.7895 55.771C59.8269 59.0775 60.9293 62.3628 61.9866 65.6569C62.119 66.0626 62.2369 66.497 62.2431 66.9199C62.2527 67.647 61.8549 68.1539 61.1618 68.3622C60.4254 68.5847 59.8055 68.3561 59.3991 67.6986C59.2084 67.3898 59.0991 67.0184 58.9844 66.6669C57.6601 62.61 56.3358 58.5532 55.0061 54.4981C54.8542 54.0329 54.67 53.5603 54.4242 53.1378C53.7474 51.9641 52.2867 51.3994 50.9783 51.7607C49.0366 52.2928 48.1894 54.0298 48.8778 56.1754C50.2052 60.297 51.5652 64.408 52.898 68.5279C53.0322 68.939 53.17 69.3609 53.1996 69.7822C53.2507 70.5077 52.8779 71.0364 52.199 71.288C51.4767 71.5537 50.8294 71.3699 50.4086 70.7232C50.1589 70.3438 50.0106 69.8895 49.8675 69.4513C46.6185 59.5165 43.3803 49.5782 40.1295 39.638C39.9953 39.2269 39.8611 38.8158 39.689 38.4171C39.0572 36.9773 37.5579 36.2577 36.0152 36.6355C34.5394 36.9976 33.5175 38.4385 33.6947 39.9908C33.7543 40.504 33.9041 41.0178 34.0665 41.5154C38.1345 54.014 42.2133 66.5091 46.2867 79.006C46.4103 79.3846 46.5608 79.7724 46.5996 80.1667C46.6774 80.9374 46.299 81.5039 45.593 81.7643C44.9285 82.0051 44.2847 81.8502 43.8636 81.2394C43.6245 80.8925 43.4579 80.474 43.3255 80.0684C41.5578 74.6898 39.8026 69.3131 38.0403 63.9328C37.9256 63.5812 37.8108 63.2296 37.6801 62.8294L37.6783 62.8419Z" fill="#696979"/><path d="M28.6984 33.8825C28.454 33.7947 27.8581 33.7318 27.4838 33.411C25.8859 32.0592 24.3298 30.6518 22.7955 29.2193C22.0829 28.5601 22.08 27.6333 22.6787 26.9889C23.2429 26.3858 24.1857 26.2815 24.8555 26.8649C26.4854 28.2782 28.1026 29.7075 29.6617 31.1977C30.5514 32.0506 30.1568 33.4303 28.6984 33.8825Z" fill="#696979"/><path d="M27.3491 36.6333C27.787 37.9748 26.9795 39.1362 25.8748 38.9462C23.6292 38.5659 21.3934 38.0687 19.174 37.5482C18.4205 37.3692 18.0442 36.5104 18.204 35.7699C18.3732 34.9665 19.065 34.4054 19.9142 34.5652C22.0965 34.9721 24.2713 35.4293 26.4295 35.9459C26.845 36.0437 27.1788 36.4974 27.3491 36.6333Z" fill="#696979"/><path d="M50.0741 26.5755C49.997 26.7982 49.9572 27.3738 49.6594 27.7284C48.3015 29.3329 46.8934 30.8939 45.4602 32.4331C44.7908 33.1544 43.8719 33.185 43.2182 32.6143C42.5394 32.0219 42.4771 31.0785 43.1577 30.2997C44.5172 28.7366 45.8928 27.1862 47.3149 25.6865C48.211 24.7416 49.6174 25.0846 50.0759 26.5809L50.0741 26.5755Z" fill="#696979"/><path d="M42.006 21.9248C41.968 22.5059 41.9837 22.8479 41.9167 23.175C41.5259 25.0803 41.1171 26.9855 40.7136 28.8889C40.5556 29.6348 40.1879 30.2157 39.3835 30.3765C38.4149 30.567 37.4131 29.7927 37.5782 28.7931C37.9661 26.5117 38.4691 24.2526 39.0099 21.999C39.1767 21.2982 39.8922 20.9569 40.5614 21.0975C41.0956 21.2105 41.5664 21.6613 42.006 21.9248Z" fill="#696979"/><path d="M33.9221 25.689C34.2099 26.5707 34.5068 27.4434 34.7838 28.3286C35.1348 29.459 34.7851 30.3154 33.8788 30.6232C32.9563 30.9363 32.1632 30.471 31.7851 29.3494C31.181 27.5355 30.5823 25.7198 30.0052 23.897C29.6559 22.79 30.0364 21.8996 30.9407 21.6224C31.8125 21.3558 32.6289 21.8375 32.9968 22.8726C33.3239 23.8013 33.6095 24.7495 33.9149 25.6853L33.9221 25.689Z" fill="#696979"/><path d="M22.7883 42.6172C23.6981 42.3202 24.6044 42.0124 25.5178 41.7262C26.59 41.3942 27.4217 41.7392 27.7329 42.6192C28.0513 43.5209 27.5702 44.3603 26.4743 44.7299C24.6329 45.349 22.7825 45.959 20.9287 46.5402C19.8908 46.867 19.0073 46.4552 18.7338 45.5807C18.4532 44.7027 18.9286 43.9011 19.9722 43.5365C20.9038 43.2144 21.8514 42.923 22.7883 42.6172Z" fill="#696979"/><path d="M50.8464 36.7801C49.9095 37.086 48.9742 37.4152 48.0285 37.694C46.9781 38.001 46.1486 37.5894 45.8808 36.6772C45.6236 35.7975 46.0483 35.0424 47.0683 34.6974C48.9404 34.0624 50.816 33.4561 52.7005 32.8589C53.7384 32.5321 54.6293 32.9296 54.901 33.7986C55.1763 34.6604 54.688 35.4962 53.6553 35.8572C52.7255 36.1847 51.7761 36.4707 50.8392 36.7765L50.8464 36.7801Z" fill="#696979"/></g><path d="M 124.349 120.417 C 124.349 133.644 120.509 144.353 112.829 152.545 C 105.234 160.652 95.079 164.705 82.365 164.705 C 69.565 164.705 59.367 160.652 51.773 152.545 C 44.178 144.439 40.381 133.729 40.381 120.417 C 40.381 107.191 44.178 96.524 51.773 88.417 C 59.453 80.225 69.65 76.129 82.365 76.129 C 95.165 76.129 105.362 80.183 112.957 88.289 C 120.551 96.396 124.349 107.105 124.349 120.417 Z M 67.133 101.217 C 63.378 105.911 61.501 112.311 61.501 120.417 C 61.501 128.524 63.378 134.967 67.133 139.745 C 70.887 144.439 75.965 146.785 82.365 146.785 C 88.765 146.785 93.842 144.439 97.597 139.745 C 101.351 134.967 103.229 128.524 103.229 120.417 C 103.229 112.311 101.351 105.911 97.597 101.217 C 93.842 96.439 88.765 94.049 82.365 94.049 C 75.965 94.049 70.887 96.439 67.133 101.217 Z M 155.751 163.809 L 137.063 163.809 L 137.191 98.913 L 155.751 98.913 L 155.751 110.945 C 156.945 107.191 158.908 104.204 161.639 101.985 C 164.455 99.681 167.697 98.529 171.367 98.529 C 173.415 98.529 175.036 98.7 176.231 99.041 L 176.231 116.705 C 174.183 115.767 171.836 115.297 169.191 115.297 C 165.18 115.297 161.937 116.791 159.463 119.777 C 156.988 122.679 155.751 126.561 155.751 131.425 L 155.751 163.809 Z M 200.31 131.553 C 200.31 136.759 201.675 140.983 204.406 144.225 C 207.136 147.383 210.464 148.961 214.39 148.961 C 218.656 148.961 222.112 147.297 224.758 143.969 C 227.403 140.641 228.726 136.204 228.726 130.657 C 228.726 125.281 227.275 121.1 224.374 118.113 C 221.558 115.127 218.187 113.633 214.262 113.633 C 210.336 113.633 207.008 115.212 204.278 118.369 C 201.632 121.527 200.31 125.921 200.31 131.553 Z M 247.414 163.809 L 228.726 163.809 L 228.726 153.697 C 224.374 160.951 217.888 164.577 209.27 164.577 C 200.822 164.577 194.038 161.292 188.918 154.721 C 183.883 148.151 181.366 140.3 181.366 131.169 C 181.366 120.929 184.011 112.865 189.302 106.977 C 194.592 101.089 201.291 98.145 209.398 98.145 C 217.846 98.145 224.288 101.729 228.726 108.897 L 228.726 73.313 L 247.414 73.313 L 247.414 163.809 Z M 313.76 160.097 C 309.322 162.999 302.538 164.449 293.408 164.449 C 282.741 164.449 274.421 161.377 268.448 155.233 C 262.56 149.004 259.616 141.025 259.616 131.297 C 259.616 120.972 262.474 112.908 268.192 107.105 C 273.994 101.217 281.12 98.273 289.568 98.273 C 298.272 98.273 305.141 100.833 310.176 105.953 C 315.21 110.988 317.728 118.54 317.728 128.609 C 317.728 130.572 317.386 133.943 316.704 138.721 L 278.56 138.721 C 279.84 142.305 282.058 145.079 285.216 147.041 C 288.373 149.004 292.17 149.985 296.608 149.985 C 303.178 149.985 308.896 148.151 313.76 144.481 L 313.76 160.097 Z M 290.336 112.481 C 287.349 112.481 284.704 113.591 282.4 115.809 C 280.096 117.943 278.56 121.143 277.792 125.409 L 300.32 125.409 L 300.32 123.873 C 299.722 116.279 296.394 112.481 290.336 112.481 Z M 390.586 163.809 L 371.898 163.809 L 371.898 125.153 C 371.898 121.313 371.002 118.412 369.21 116.449 C 367.418 114.401 364.9 113.377 361.658 113.377 C 358.244 113.377 355.386 114.743 353.082 117.473 C 350.863 120.119 349.754 124.129 349.754 129.505 L 349.754 163.809 L 331.066 163.809 L 331.066 98.913 L 349.754 98.913 L 349.754 109.921 C 351.375 106.337 353.85 103.521 357.178 101.473 C 360.591 99.34 364.644 98.273 369.338 98.273 C 375.994 98.273 381.199 100.279 384.954 104.289 C 388.708 108.215 390.586 114.017 390.586 121.697 L 390.586 163.809 Z M 429.124 151.009 C 431.769 151.009 433.817 150.199 435.268 148.577 C 436.718 146.956 437.444 144.737 437.444 141.921 L 437.444 137.185 L 431.428 137.185 C 428.27 137.185 425.838 137.868 424.132 139.233 C 422.425 140.599 421.572 142.348 421.572 144.481 C 421.572 148.833 424.089 151.009 429.124 151.009 Z M 438.34 155.873 C 435.609 161.42 430.233 164.193 422.212 164.193 C 415.897 164.193 410.948 162.401 407.364 158.817 C 403.865 155.233 402.116 150.753 402.116 145.377 C 402.116 139.148 404.377 134.327 408.9 130.913 C 413.508 127.415 420.292 125.665 429.252 125.665 L 437.444 125.665 L 437.444 121.185 C 437.444 115.724 433.817 112.993 426.564 112.993 C 419.566 112.993 413.081 114.956 407.108 118.881 L 407.108 102.113 C 412.228 99.212 419.609 97.761 429.252 97.761 C 438.468 97.761 445.337 99.767 449.86 103.777 C 454.382 107.703 456.644 113.847 456.644 122.209 L 456.644 163.809 L 438.34 163.809 L 438.34 155.873 Z M 98.39 282.145 C 95.062 290.934 91.094 297.121 86.486 300.705 C 81.963 304.289 76.758 306.081 70.87 306.081 C 68.651 306.081 66.859 305.868 65.494 305.441 L 65.494 296.353 C 66.774 296.694 68.224 296.865 69.846 296.865 C 78.464 296.865 84.566 291.958 88.15 282.145 L 61.91 218.913 L 73.302 218.913 L 81.75 240.289 L 93.142 269.729 C 93.824 267.51 97.238 257.697 103.382 240.289 L 110.934 218.913 L 121.814 218.913 L 98.39 282.145 Z M 179.254 307.745 L 160.566 307.745 L 160.566 218.913 L 179.254 218.913 L 179.254 228.897 C 183.776 221.729 190.304 218.145 198.838 218.145 C 207.2 218.145 213.899 221.132 218.934 227.105 C 224.054 232.993 226.614 241.014 226.614 251.169 C 226.614 260.812 224.139 268.79 219.19 275.105 C 214.326 281.42 207.542 284.577 198.838 284.577 C 190.048 284.577 183.52 281.121 179.254 274.209 L 179.254 307.745 Z M 179.254 250.657 C 179.254 256.204 180.619 260.641 183.35 263.969 C 186.08 267.297 189.579 268.961 193.846 268.961 C 197.942 268.961 201.27 267.425 203.83 264.353 C 206.39 261.196 207.67 256.929 207.67 251.553 C 207.67 245.665 206.347 241.228 203.702 238.241 C 201.142 235.169 197.856 233.633 193.846 233.633 C 189.92 233.633 186.507 235.126 183.606 238.113 C 180.704 241.1 179.254 245.281 179.254 250.657 Z M 262.624 271.009 C 265.269 271.009 267.317 270.198 268.768 268.577 C 270.218 266.956 270.944 264.737 270.944 261.921 L 270.944 257.185 L 264.928 257.185 C 261.77 257.185 259.338 257.868 257.632 259.233 C 255.925 260.598 255.072 262.348 255.072 264.481 C 255.072 268.833 257.589 271.009 262.624 271.009 Z M 271.84 275.873 C 269.109 281.42 263.733 284.193 255.712 284.193 C 249.397 284.193 244.448 282.401 240.864 278.817 C 237.365 275.233 235.616 270.753 235.616 265.377 C 235.616 259.148 237.877 254.326 242.4 250.913 C 247.008 247.414 253.792 245.665 262.752 245.665 L 270.944 245.665 L 270.944 241.185 C 270.944 235.724 267.317 232.993 260.064 232.993 C 253.066 232.993 246.581 234.956 240.608 238.881 L 240.608 222.113 C 245.728 219.212 253.109 217.761 262.752 217.761 C 271.968 217.761 278.837 219.766 283.36 223.777 C 287.882 227.702 290.144 233.846 290.144 242.209 L 290.144 283.809 L 271.84 283.809 L 271.84 275.873 Z M 364.976 277.537 C 364.976 287.948 361.861 295.756 355.632 300.961 C 349.402 306.252 341.594 308.897 332.208 308.897 C 323.077 308.897 315.098 307.276 308.272 304.033 L 308.272 284.961 C 314.245 289.74 321.584 292.129 330.288 292.129 C 335.92 292.129 340.016 290.934 342.576 288.545 C 345.136 286.156 346.416 282.401 346.416 277.281 L 346.416 272.929 C 342.661 278.732 336.688 281.633 328.496 281.633 C 321.328 281.633 315.141 278.988 309.936 273.697 C 304.816 268.406 302.256 260.556 302.256 250.145 C 302.256 240.929 304.73 233.334 309.68 227.361 C 314.714 221.302 321.285 218.273 329.392 218.273 C 337.072 218.273 342.746 221.345 346.416 227.489 L 346.416 218.913 L 364.976 218.913 L 364.976 277.537 Z M 321.712 250.273 C 321.712 255.649 322.736 259.745 324.784 262.561 C 326.832 265.377 329.776 266.785 333.616 266.785 C 337.626 266.785 340.741 265.292 342.96 262.305 C 345.264 259.233 346.416 255.564 346.416 251.297 C 346.416 239.692 342.192 233.889 333.744 233.889 C 329.989 233.889 327.045 235.34 324.912 238.241 C 322.778 241.142 321.712 245.153 321.712 250.273 Z M 403.499 271.009 C 406.144 271.009 408.192 270.198 409.643 268.577 C 411.093 266.956 411.819 264.737 411.819 261.921 L 411.819 257.185 L 405.803 257.185 C 402.645 257.185 400.213 257.868 398.507 259.233 C 396.8 260.598 395.947 262.348 395.947 264.481 C 395.947 268.833 398.464 271.009 403.499 271.009 Z M 412.715 275.873 C 409.984 281.42 404.608 284.193 396.587 284.193 C 390.272 284.193 385.323 282.401 381.739 278.817 C 378.24 275.233 376.491 270.753 376.491 265.377 C 376.491 259.148 378.752 254.326 383.275 250.913 C 387.883 247.414 394.667 245.665 403.627 245.665 L 411.819 245.665 L 411.819 241.185 C 411.819 235.724 408.192 232.993 400.939 232.993 C 393.941 232.993 387.456 234.956 381.483 238.881 L 381.483 222.113 C 386.603 219.212 393.984 217.761 403.627 217.761 C 412.843 217.761 419.712 219.766 424.235 223.777 C 428.757 227.702 431.019 233.846 431.019 242.209 L 431.019 283.809 L 412.715 283.809 L 412.715 275.873 Z M 153.999 391.009 C 156.644 391.009 158.692 390.198 160.143 388.577 C 161.593 386.956 162.319 384.737 162.319 381.921 L 162.319 377.185 L 156.303 377.185 C 153.145 377.185 150.713 377.868 149.007 379.233 C 147.3 380.598 146.447 382.348 146.447 384.481 C 146.447 388.833 148.964 391.009 153.999 391.009 Z M 163.215 395.873 C 160.484 401.42 155.108 404.193 147.087 404.193 C 140.772 404.193 135.823 402.401 132.239 398.817 C 128.74 395.233 126.991 390.753 126.991 385.377 C 126.991 379.148 129.252 374.326 133.775 370.913 C 138.383 367.414 145.167 365.665 154.127 365.665 L 162.319 365.665 L 162.319 361.185 C 162.319 355.724 158.692 352.993 151.439 352.993 C 144.441 352.993 137.956 354.956 131.983 358.881 L 131.983 342.113 C 137.103 339.212 144.484 337.761 154.127 337.761 C 163.343 337.761 170.212 339.766 174.735 343.777 C 179.257 347.702 181.519 353.846 181.519 362.209 L 181.519 403.809 L 163.215 403.809 L 163.215 395.873 Z M 211.935 371.553 C 211.935 376.758 213.3 380.982 216.031 384.225 C 218.761 387.382 222.089 388.961 226.015 388.961 C 230.281 388.961 233.737 387.297 236.383 383.969 C 239.028 380.641 240.351 376.204 240.351 370.657 C 240.351 365.281 238.9 361.1 235.999 358.113 C 233.183 355.126 229.812 353.633 225.887 353.633 C 221.961 353.633 218.633 355.212 215.903 358.369 C 213.257 361.526 211.935 365.921 211.935 371.553 Z M 259.039 427.745 L 240.351 427.745 L 240.351 393.697 C 235.999 400.95 229.513 404.577 220.895 404.577 C 212.191 404.577 205.364 401.42 200.415 395.105 C 195.465 388.79 192.991 380.812 192.991 371.169 C 192.991 361.014 195.551 352.993 200.671 347.105 C 205.791 341.132 212.575 338.145 221.023 338.145 C 229.471 338.145 235.913 341.729 240.351 348.897 L 240.351 338.913 L 259.039 338.913 L 259.039 427.745 Z M 333.321 403.809 L 314.633 403.809 L 314.633 393.441 C 311.219 400.694 304.649 404.321 294.921 404.321 C 288.265 404.321 283.059 402.486 279.305 398.817 C 275.635 395.062 273.801 389.558 273.801 382.305 L 273.801 338.913 L 292.489 338.913 L 292.489 378.081 C 292.489 385.676 295.817 389.473 302.473 389.473 C 310.579 389.473 314.633 384.054 314.633 373.217 L 314.633 338.913 L 333.321 338.913 L 333.321 403.809 Z M 368.019 403.809 L 349.331 403.809 L 349.331 338.913 L 368.019 338.913 L 368.019 403.809 Z M 367.379 332.897 L 351.891 332.897 L 362.899 310.241 L 381.587 310.241 L 367.379 332.897 Z" fill="#502314"/></svg>